<svg width="40" height="40" viewBox="0 0 40 40" fill="none" xmlns="http://www.w3.org/2000/svg">
<g filter="url(#filter0_d_1_27)">
<path fill-rule="evenodd" clip-rule="evenodd" d="M19.7495 6C14.3653 6 10 10.3655 10 15.7505C10 20.0582 12.793 23.7128 16.6678 25.0013C17.1558 25.0915 17.3333 24.7913 17.3333 24.532C17.3333 24.301 17.3248 23.6883 17.3205 22.8738C14.6083 23.4635 14.036 21.5665 14.036 21.5665C13.5925 20.4402 12.9532 20.1407 12.9532 20.1407C12.068 19.5362 13.0205 19.548 13.0205 19.548C13.999 19.6172 14.514 20.5525 14.514 20.5525C15.3835 22.0425 16.7962 21.6112 17.3515 21.3632C17.4397 20.732 17.6922 20.3032 17.9705 20.059C15.8057 19.813 13.5297 18.9765 13.5297 15.2405C13.5297 14.1757 13.9095 13.3052 14.533 12.6235C14.4332 12.378 14.098 11.3867 14.6287 10.0437C14.6287 10.0437 15.4473 9.78175 17.3103 11.044C18.0875 10.8267 18.9218 10.7183 19.751 10.715C20.579 10.7185 21.4135 10.8267 22.1917 11.044C24.0535 9.78175 24.8708 10.0437 24.8708 10.0437C25.4028 11.3867 25.0678 12.378 24.9678 12.6235C25.5928 13.3052 25.9697 14.1757 25.9697 15.2405C25.9697 18.9852 23.6905 19.8102 21.5185 20.0507C21.868 20.352 22.18 20.9482 22.18 21.858C22.18 23.1607 22.1683 24.212 22.1683 24.5317C22.1683 24.793 22.3435 25.0967 22.8385 25C26.709 23.7088 29.5 20.057 29.5 15.7505C29.5 10.3655 25.1348 6 19.7495 6Z" fill="black"/>
</g>
<defs>
<filter id="filter0_d_1_27" x="0" y="0" width="39.5" height="39.0184" filterUnits="userSpaceOnUse" color-interpolation-filters="sRGB">
<feFlood flood-opacity="0" result="BackgroundImageFix"/>
<feColorMatrix in="SourceAlpha" type="matrix" values="0 0 0 0 0 0 0 0 0 0 0 0 0 0 0 0 0 0 127 0" result="hardAlpha"/>
<feOffset dy="4"/>
<feGaussianBlur stdDeviation="5"/>
<feColorMatrix type="matrix" values="0 0 0 0 0 0 0 0 0 0 0 0 0 0 0 0 0 0 0.25 0"/>
<feBlend mode="normal" in2="BackgroundImageFix" result="effect1_dropShadow_1_27"/>
<feBlend mode="normal" in="SourceGraphic" in2="effect1_dropShadow_1_27" result="shape"/>
</filter>
</defs>
</svg>
