<svg width="40" height="40" viewBox="0 0 40 40" fill="none" xmlns="http://www.w3.org/2000/svg">
<g filter="url(#filter0_d_1_25)">
<path d="M20 6C14.477 6 10 10.477 10 16C10 21.523 14.477 26 20 26C25.523 26 30 21.523 30 16C30 10.477 25.523 6 20 6ZM20 7.449C22.1785 7.449 24.167 8.264 25.677 9.605C24.5675 11.0685 22.882 12.043 21.193 12.7025C20.2369 10.9612 19.1653 9.28576 17.9855 7.6875C18.6453 7.52845 19.3218 7.44839 20.0005 7.449H20ZM16.362 8.259C17.477 9.927 18.557 11.4735 19.5435 13.224C17.0485 13.8705 14.229 14.2585 11.6245 14.265C12.1735 11.601 13.963 9.389 16.362 8.2595V8.259ZM26.6255 10.594C27.8611 12.104 28.5409 13.9924 28.551 15.9435C26.573 15.5535 24.606 15.4515 22.603 15.6535C22.378 15.092 22.105 14.5585 21.8435 13.9835C23.57 13.287 25.416 12.095 26.6255 10.5935V10.594ZM20.238 14.547C20.452 15.002 20.7 15.485 20.933 15.9785C18.148 17.2065 15.1855 18.8475 13.648 21.7245C12.172 20.0911 11.3854 17.9499 11.453 15.7495C14.4355 15.7355 17.363 15.3625 20.238 14.547ZM24.757 16.8785C26.0014 16.8788 27.2407 17.0384 28.4445 17.3535C28.2589 18.5116 27.837 19.6192 27.205 20.6072C26.573 21.5953 25.7445 22.4428 24.771 23.097C24.312 21.0095 23.8745 19.012 23.101 16.998C23.6492 16.9181 24.2025 16.878 24.7565 16.878L24.757 16.8785ZM28.489 17.0335C28.483 17.0825 28.4775 17.1305 28.4705 17.1785C28.4775 17.13 28.4835 17.082 28.489 17.0335ZM21.519 17.3885C22.307 19.425 22.9255 21.68 23.3405 23.8745C22.2841 24.3227 21.1481 24.553 20.0005 24.5515C18.0994 24.5542 16.2521 23.9206 14.753 22.7515C16.3015 20.2395 18.7 18.3385 21.5185 17.389L21.519 17.3885Z" fill="#EA4C89"/>
</g>
<defs>
<filter id="filter0_d_1_25" x="0" y="0" width="40" height="40" filterUnits="userSpaceOnUse" color-interpolation-filters="sRGB">
<feFlood flood-opacity="0" result="BackgroundImageFix"/>
<feColorMatrix in="SourceAlpha" type="matrix" values="0 0 0 0 0 0 0 0 0 0 0 0 0 0 0 0 0 0 127 0" result="hardAlpha"/>
<feOffset dy="4"/>
<feGaussianBlur stdDeviation="5"/>
<feColorMatrix type="matrix" values="0 0 0 0 0 0 0 0 0 0 0 0 0 0 0 0 0 0 0.25 0"/>
<feBlend mode="normal" in2="BackgroundImageFix" result="effect1_dropShadow_1_25"/>
<feBlend mode="normal" in="SourceGraphic" in2="effect1_dropShadow_1_25" result="shape"/>
</filter>
</defs>
</svg>
