<svg width="43" height="39" viewBox="0 0 43 39" fill="none" xmlns="http://www.w3.org/2000/svg">
<g filter="url(#filter0_d_1_32)">
<path d="M33 8.24888C32.1389 8.63751 31.2252 8.89221 30.2895 9.00442C31.272 8.40266 32.0082 7.46107 32.3632 6.35224C31.4366 6.90993 30.4232 7.30299 29.3667 7.51452C28.6556 6.74451 27.7145 6.23446 26.6894 6.06339C25.6642 5.89232 24.6122 6.06977 23.6963 6.56826C22.7804 7.06675 22.0518 7.85845 21.6233 8.82067C21.1948 9.7829 21.0904 10.862 21.3263 11.8906C19.45 11.7946 17.6144 11.2986 15.9389 10.4347C14.2633 9.57077 12.7851 8.35831 11.6002 6.87599C11.1806 7.60837 10.9601 8.44101 10.9612 9.28858C10.9603 10.0784 11.1514 10.8563 11.5176 11.5529C11.8838 12.2495 12.4137 12.8433 13.0601 13.2813C12.3108 13.2577 11.578 13.0522 10.9228 12.6818V12.7409C10.9224 13.849 11.2992 14.9231 11.9892 15.7807C12.6793 16.6384 13.6402 17.2267 14.7085 17.4457C14.3139 17.5572 13.8975 17.6095 13.4656 17.6095C13.1609 17.6095 12.8661 17.5839 12.5778 17.5248C12.8794 18.478 13.4665 19.3116 14.2568 19.909C15.0472 20.5064 16.0014 20.8378 16.986 20.8568C15.0057 22.4287 12.4948 23.1416 10 22.8404C12.1565 24.2532 14.6683 25.0031 17.2337 25C25.9142 25 30.6578 17.6875 30.6578 11.349C30.6578 11.1407 30.6556 10.9345 30.6468 10.7283C31.5711 10.0529 32.3679 9.21328 32.9989 8.25" fill="#1DA1F2"/>
</g>
<defs>
<filter id="filter0_d_1_32" x="0" y="0" width="43" height="39" filterUnits="userSpaceOnUse" color-interpolation-filters="sRGB">
<feFlood flood-opacity="0" result="BackgroundImageFix"/>
<feColorMatrix in="SourceAlpha" type="matrix" values="0 0 0 0 0 0 0 0 0 0 0 0 0 0 0 0 0 0 127 0" result="hardAlpha"/>
<feOffset dy="4"/>
<feGaussianBlur stdDeviation="5"/>
<feColorMatrix type="matrix" values="0 0 0 0 0 0 0 0 0 0 0 0 0 0 0 0 0 0 0.25 0"/>
<feBlend mode="normal" in2="BackgroundImageFix" result="effect1_dropShadow_1_32"/>
<feBlend mode="normal" in="SourceGraphic" in2="effect1_dropShadow_1_32" result="shape"/>
</filter>
</defs>
</svg>
